# xmcd CD database file
#
# Track frame offsets:
#	150
#	21882
#	51777
#	78097
#	100697
#	127592
#	159142
#
# Disc length: 3494 seconds
#
# Revision: 0
# Processed by: cddbd v1.5.1PL0 Copyright (c) Steve Scherf et al.
# Submitted via: CDex 1.51
#
DISCID=3c0da407
DTITLE=Jule Unterspann - LIL'IT
DYEAR=2003
DGENRE=Jazz
TTITLE0=Celeste
TTITLE1=Lil'it
TTITLE2=Was Pinched
TTITLE3=Pannonica
TTITLE4=Beautiful Love
TTITLE5=Yesterdays
TTITLE6=Peacocks
EXTD=YEAR: 2003
EXTT0=
EXTT1=
EXTT2=
EXTT3=
EXTT4=
EXTT5=
EXTT6=
PLAYORDER=
